#!OML:ASF H:\Dans Jumps\Project 1\Capture day 1\Session 1\subject.ASF
:FULLY-SPECIFIED
:DEGREES
120
root 0.555023 17.6012 -13.7431 6.99072 -0.417806 -1.05223
lowerback -3.06091 -0.719788 -0.48369
upperback 1.40068 -0.993155 1.78637
thorax 3.19718 -0.524795 2.05234
lowerneck -13.6095 0.4692 -1.92708
upperneck 13.6209 1.02332 0.0407458
head 6.369 0.396887 0.423589
rclavicle 3.37934e-015 -2.38542e-015
rhumerus -27.4527 -18.6931 -77.8004
rradius 22.7934
rwrist 34.3637
rhand -19.3408 -26.948
rfingers 7.12502
rthumb 6.9762 -56.8131
lclavicle 3.37934e-015 -2.38542e-015
lhumerus -23.2375 5.58718 86.2607
lradius 14.5443
lwrist -1.10441
lhand -25.6574 -4.77846
lfingers 7.12502
lthumb 0.876683 25.1995
rfemur -11.6152 -3.52729 20.2555
rtibia 19.9512
rfoot -14.3217 -3.75984
rtoes 13.977
lfemur -10.3916 8.68804 -19.7012
ltibia 16.7237
lfoot -11.6264 3.55205
ltoes 2.66944
121
root 0.556265 17.6009 -13.7452 6.98536 -0.427847 -1.05671
lowerback -3.05229 -0.718382 -0.481964
upperback 1.4028 -0.991388 1.7879
thorax 3.19444 -0.523895 2.05313
lowerneck -13.6152 0.470104 -1.92262
upperneck 13.6427 1.02472 0.0359501
head 6.37699 0.397197 0.421566
rclavicle 9.83984e-015 -2.66371e-014
rhumerus -27.4371 -18.6653 -77.8244
rradius 22.8073
rwrist 34.3369
rhand -19.3349 -26.9497
rfingers 7.12502
rthumb 6.98189 -56.8146
lclavicle 9.83984e-015 -2.66371e-014
lhumerus -23.2229 5.5752 86.2547
lradius 14.5531
lwrist -1.09887
lhand -25.6507 -4.75737
lfingers 7.12502
lthumb 0.883118 25.2206
rfemur -11.6231 -3.51217 20.2553
rtibia 19.9607
rfoot -14.3178 -3.76284
rtoes 13.986
lfemur -10.4021 8.69561 -19.7014
ltibia 16.7408
lfoot -11.6274 3.55212
ltoes 2.66229
122
root 0.55748 17.6006 -13.7472 6.98137 -0.434259 -1.06284
lowerback -3.04462 -0.718024 -0.478022
upperback 1.40399 -0.991111 1.78951
thorax 3.19129 -0.523683 2.05267
lowerneck -13.6217 0.470334 -1.91832
upperneck 13.6639 1.02507 0.0322291
head 6.38491 0.39709 0.419816
rclavicle -1.2921e-015 -2.54444e-014
rhumerus -27.4242 -18.6425 -77.8466
rradius 22.8197
rwrist 34.316
rhand -19.3291 -26.9485
rfingers 7.12502
rthumb 6.98743 -56.8131
lclavicle -1.2921e-015 -2.54444e-014
lhumerus -23.2107 5.55479 86.2506
lradius 14.566
lwrist -1.08144
lhand -25.6497 -4.73506
lfingers 7.12502
lthumb 0.884064 25.2429
rfemur -11.6309 -3.50045 20.2575
rtibia 19.9687
rfoot -14.3138 -3.7667
rtoes 13.9898
lfemur -10.4152 8.70295 -19.6997
ltibia 16.7599
lfoot -11.6279 3.54951
ltoes 2.65024
123
root 0.558662 17.6003 -13.7491 6.9771 -0.437673 -1.06961
lowerback -3.03758 -0.718539 -0.472663
upperback 1.40494 -0.992047 1.79075
thorax 3.18826 -0.524041 2.05096
lowerneck -13.6273 0.470252 -1.91272
upperneck 13.683 1.02491 0.0272323
head 6.39203 0.396713 0.417384
rclavicle -6.21202e-015 6.36111e-015
rhumerus -27.4128 -18.6267 -77.8665
rradius 22.8278
rwrist 34.304
rhand -19.3335 -26.9343
rfingers 7.12502
rthumb 6.98326 -56.7991
lclavicle -6.21202e-015 6.36111e-015
lhumerus -23.2001 5.52745 86.2479
lradius 14.5817
lwrist -1.05223
lhand -25.6489 -4.7062
lfingers 7.12502
lthumb 0.884828 25.2717
rfemur -11.6368 -3.49188 20.2609
rtibia 19.9757
rfoot -14.3108 -3.77073
rtoes 13.9947
lfemur -10.4281 8.71063 -19.697
ltibia 16.7804
lfoot -11.6286 3.54472
ltoes 2.6312
124
root 0.559803 17.6 -13.7509 6.97196 -0.438889 -1.07722
lowerback -3.03053 -0.719786 -0.46618
upperback 1.40565 -0.994006 1.792
thorax 3.185 -0.524883 2.04857
lowerneck -13.6299 0.470972 -1.90725
upperneck 13.6995 1.02562 0.0231891
head 6.39777 0.396854 0.415337
rclavicle -7.45443e-016 2.38542e-015
rhumerus -27.4051 -18.6118 -77.8851
rradius 22.8357
rwrist 34.2954
rhand -19.3424 -26.9139
rfingers 7.12502
rthumb 6.97466 -56.779
lclavicle -7.45443e-016 2.38542e-015
lhumerus -23.1919 5.50266 86.2444
lradius 14.5993
lwrist -1.02282
lhand -25.6569 -4.6884
lfingers 7.12502
lthumb 0.877154 25.2895
rfemur -11.6403 -3.4876 20.2654
rtibia 19.9814
rfoot -14.3091 -3.7732
rtoes 13.9948
lfemur -10.4402 8.71757 -19.693
ltibia 16.8019
lfoot -11.6305 3.53896
ltoes 2.61406
125
root 0.560879 17.5996 -13.7526 6.96638 -0.439498 -1.08525
lowerback -3.02212 -0.721003 -0.459317
upperback 1.40547 -0.99591 1.7929
thorax 3.18004 -0.52567 2.04561
lowerneck -13.6295 0.470759 -1.90312
upperneck 13.7131 1.02492 0.0211038
head 6.4021 0.396442 0.413982
rclavicle 1.49089e-015 -1.23246e-014
rhumerus -27.3997 -18.6039 -77.9004
rradius 22.8396
rwrist 34.295
rhand -19.3544 -26.8903
rfingers 7.12502
rthumb 6.96305 -56.7558
lclavicle 1.49089e-015 -1.23246e-014
lhumerus -23.1852 5.48049 86.24
lradius 14.6174
lwrist -0.992869
lhand -25.6645 -4.67867
lfingers 7.12502
lthumb 0.869761 25.2993
rfemur -11.6431 -3.48421 20.2706
rtibia 19.9867
rfoot -14.3075 -3.77658
rtoes 13.9878
lfemur -10.4513 8.72464 -19.6883
ltibia 16.823
lfoot -11.6331 3.53209
ltoes 2.60159
